<?xml version="1.0" encoding="UTF-8" standalone="no"?>
<!-- Created with Inkscape (http://www.inkscape.org/) -->

<svg
   width="320"
   height="110"
   viewBox="0 0 320 110"
   version="1.1"
   id="svg5"
   xmlns="http://www.w3.org/2000/svg"
   xmlns:svg="http://www.w3.org/2000/svg">
  <defs
     id="defs2" />
  <g
     id="layer1">
    <path
       d="M 6.7278303,6 V 21.081202 H 25.130883 V 87.717526 H 6.7278303 V 102.73229 H 62.667796 V 87.717526 H 43.799684 V 21.081202 H 62.667796 V 6 Z"
       style="fill:#ec1313;fill-opacity:0.5;stroke:none"/>
    <path
       d="m 115.61861,65.224416 18.20373,36.141734 h 19.99754 v -0.86368 L 133.0251,60.573825 q 3.98622,-1.793799 7.17519,-4.251969 3.25542,-2.458169 5.58071,-5.78002 2.25886,-3.255414 3.45473,-7.374509 1.26231,-4.185531 1.26231,-9.367618 0,-7.175198 -2.52461,-12.623033 -2.45817,-5.447835 -7.04232,-9.101871 Q 136.28051,8.4207693 129.76968,6.5605334 123.25885,4.63386 115.21999,4.63386 H 82.798715 v 96.73229 H 101.46752 V 65.224416 Z M 101.46752,50.076777 V 19.781499 h 13.75247 q 3.85334,0 6.84301,0.930118 2.98966,0.930118 5.04921,2.65748 2.3253,1.926674 3.45472,4.916339 1.19586,2.923229 1.19586,6.776576 0,3.188976 -0.93011,5.78002 -0.86368,2.591044 -2.59104,4.45128 -2.05955,2.325295 -5.3814,3.587599 -3.25541,1.195866 -7.57382,1.195866 z"
       style="fill:#ec1313;fill-opacity:0.5;stroke:none"/>
    <path
       d="m 117.61861,67.224415 18.20373,36.141735 h 19.99754 v -0.86368 L 135.0251,62.573824 q 3.98622,-1.793799 7.17519,-4.251969 3.25542,-2.458169 5.58071,-5.78002 2.25886,-3.255414 3.45473,-7.374509 1.26231,-4.185531 1.26231,-9.367618 0,-7.175198 -2.52461,-12.623033 -2.45817,-5.447835 -7.04232,-9.101871 -4.6506,-3.654036 -11.16143,-5.5142717 -6.51083,-1.926673 -14.54969,-1.926673 H 84.798715 V 103.36615 H 103.46752 V 67.224415 Z M 103.46752,52.076776 V 21.781498 h 13.75247 q 3.85334,0 6.84301,0.930118 2.98966,0.930118 5.0492,2.65748 2.3253,1.926674 3.45473,4.916339 1.19586,2.923229 1.19586,6.776576 0,3.188976 -0.93011,5.78002 -0.86368,2.591044 -2.59104,4.45128 -2.05955,2.325295 -5.3814,3.587599 -3.25541,1.195866 -7.57382,1.195866 z"
       style="fill:#0600ff;fill-opacity:0.5;stroke:none"/>
    <path
       d="M 236.99852,23.214076 V 8 h -77.99705 v 15.214076 h 29.43159 V 104.73229 H 207.1683 V 23.214076 Z"
       style="fill:#0600ff;fill-opacity:0.5;stroke:none"/>
    <path
       d="M 267.55955,89.651089 V 8 h -18.73524 v 96.73229 h 64.04528 V 89.651089 Z"
       style="fill:#0600ff;fill-opacity:0.5;stroke:none"/>
  </g>
</svg>
