<?xml version="1.0" encoding="UTF-8" standalone="no"?>
<!-- Created with Inkscape (http://www.inkscape.org/) -->

<svg
   width="320"
   height="110"
   viewBox="0 0 320 110"
   version="1.1"
   id="svg5"
   inkscape:version="1.2.1 (9c6d41e410, 2022-07-14)"
   sodipodi:docname="logo.svg"
   xmlns:inkscape="http://www.inkscape.org/namespaces/inkscape"
   xmlns:sodipodi="http://sodipodi.sourceforge.net/DTD/sodipodi-0.dtd"
   xmlns="http://www.w3.org/2000/svg"
   xmlns:svg="http://www.w3.org/2000/svg">
  <sodipodi:namedview
     id="namedview7"
     pagecolor="#ffffff"
     bordercolor="#000000"
     borderopacity="0.25"
     inkscape:showpageshadow="2"
     inkscape:pageopacity="0.0"
     inkscape:pagecheckerboard="0"
     inkscape:deskcolor="#d1d1d1"
     inkscape:document-units="mm"
     showgrid="true"
     inkscape:zoom="4.609375"
     inkscape:cx="169.32881"
     inkscape:cy="27.661017"
     inkscape:window-width="2430"
     inkscape:window-height="2091"
     inkscape:window-x="20"
     inkscape:window-y="20"
     inkscape:window-maximized="0"
     inkscape:current-layer="layer1">
    <inkscape:grid
       type="xygrid"
       id="grid2138"
       empspacing="8"
       dotted="true"
       originx="0"
       originy="0" />
  </sodipodi:namedview>
  <defs
     id="defs2" />
  <g
     inkscape:label="Layer 1"
     inkscape:groupmode="layer"
     id="layer1">
    <g
       aria-label="IRTL"
       id="text2244"
       style="font-weight:bold;font-size:136.063px;font-family:'Iosevka SS16';-inkscape-font-specification:'Iosevka SS16 Bold';text-align:center;text-anchor:middle;fill:none;stroke:none;stroke-width:0.755906"
       transform="translate(-0.201285,-1.6338507)">
      <path
         d="M 6.9291153,7.6338507 V 22.715053 H 25.332168 V 89.351377 H 6.9291153 V 104.36614 H 62.869081 V 89.351377 H 44.000969 V 22.715053 H 62.869081 V 7.6338507 Z"
         style="font-family:'Roboto Mono';-inkscape-font-specification:'Roboto Mono Bold';fill:#ec1313;fill-opacity:0.501011;stroke:none"
         id="path2456" />
      <path
         d="M 115.81989,66.858267 134.02363,103 h 19.99754 v -0.86368 L 133.22639,62.207676 q 3.98622,-1.793799 7.17519,-4.251969 3.25542,-2.458169 5.58071,-5.78002 2.25886,-3.255414 3.45473,-7.374509 1.2623,-4.185531 1.2623,-9.367618 0,-7.175198 -2.52461,-12.623033 -2.45817,-5.447835 -7.04232,-9.101871 Q 136.4818,10.05462 129.97097,8.1943841 123.46014,6.2677107 115.42127,6.2677107 H 83 V 103 h 18.6688 V 66.858267 Z M 101.6688,51.710628 V 21.41535 h 13.75247 q 3.85334,0 6.84301,0.930118 2.98966,0.930118 5.04921,2.65748 2.3253,1.926674 3.45473,4.916339 1.19586,2.923229 1.19586,6.776576 0,3.188976 -0.93012,5.78002 -0.86368,2.591044 -2.59104,4.45128 -2.05955,2.325295 -5.3814,3.587599 -3.25541,1.195866 -7.57382,1.195866 z"
         style="font-family:'Roboto Mono';-inkscape-font-specification:'Roboto Mono Bold';font-variation-settings:normal;opacity:1;vector-effect:none;fill:#ec1313;fill-opacity:0.501011;stroke:none;stroke-width:0.755906;stroke-linecap:butt;stroke-linejoin:miter;stroke-miterlimit:4;stroke-dasharray:none;stroke-dashoffset:0;stroke-opacity:1;-inkscape-stroke:none;stop-color:#000000;stop-opacity:1"
         id="path2458" />
      <path
         d="M 117.81989,68.858266 136.02363,105 h 19.99754 v -0.86368 L 135.22639,64.207675 q 3.98622,-1.793799 7.17519,-4.251969 3.25542,-2.458169 5.58071,-5.78002 2.25886,-3.255414 3.45473,-7.374509 1.2623,-4.185531 1.2623,-9.367618 0,-7.175198 -2.52461,-12.623033 -2.45817,-5.447835 -7.04232,-9.101871 Q 138.4818,12.054619 131.97097,10.194383 125.46014,8.26771 117.42127,8.26771 H 85 V 105 h 18.6688 V 68.858266 Z M 103.6688,53.710627 V 23.415349 h 13.75247 q 3.85334,0 6.84301,0.930118 2.98966,0.930118 5.04921,2.65748 2.3253,1.926674 3.45473,4.916339 1.19586,2.923229 1.19586,6.776576 0,3.188976 -0.93012,5.78002 -0.86368,2.591044 -2.59104,4.45128 -2.05955,2.325295 -5.3814,3.587599 -3.25541,1.195866 -7.57382,1.195866 z"
         style="font-weight:bold;font-size:136.063px;font-family:'Roboto Mono';-inkscape-font-specification:'Roboto Mono Bold';font-variation-settings:normal;text-align:center;text-anchor:middle;opacity:1;vector-effect:none;fill:#0600ff;fill-opacity:0.501431;stroke:none;stroke-width:0.755906;stroke-linecap:butt;stroke-linejoin:miter;stroke-miterlimit:4;stroke-dasharray:none;stroke-dashoffset:0;stroke-opacity:1;-inkscape-stroke:none;stop-color:#000000;stop-opacity:1"
         id="path2458-2" />
      <path
         d="M 237.19981,24.847927 V 9.6338507 H 159.20276 V 24.847927 h 29.43159 v 81.518213 h 18.73524 V 24.847927 Z"
         style="font-family:'Roboto Mono';-inkscape-font-specification:'Roboto Mono Bold';fill:#0600ff;fill-opacity:0.501431;stroke:none"
         id="path2460" />
      <path
         d="M 267.76084,91.28494 V 9.6338507 H 249.0256 V 106.36614 h 64.04528 v -15.0812 z"
         style="font-family:'Roboto Mono';-inkscape-font-specification:'Roboto Mono Bold';font-variation-settings:normal;opacity:1;vector-effect:none;fill:#0600ff;fill-opacity:0.501431;stroke:none;stroke-width:0.755906;stroke-linecap:butt;stroke-linejoin:miter;stroke-miterlimit:4;stroke-dasharray:none;stroke-dashoffset:0;stroke-opacity:1;-inkscape-stroke:none;stop-color:#000000;stop-opacity:1"
         id="path2462" />
    </g>
  </g>
</svg>
